<svg xmlns="http://www.w3.org/2000/svg" width="24.872" height="31.31" viewBox="0 0 24.872 31.31">
  <g id="Group_31588" data-name="Group 31588" transform="translate(-126.7 -19.096)">
    <g id="Group_21623" data-name="Group 21623" transform="translate(136.292 24.822)">
      <g id="Group_18802" data-name="Group 18802" transform="translate(2.241)">
        <path id="Path_28660" data-name="Path 28660" d="M3017.85,811.343a.311.311,0,0,1-.232-.107l-2.267-2.534a.4.4,0,0,1,0-.518l9.7-10.837a.844.844,0,0,1,1.288,0l1.442,1.612a1.1,1.1,0,0,1,0,1.44l-9.7,10.837A.311.311,0,0,1,3017.85,811.343Zm-1.8-2.9,1.8,2.015,9.464-10.578a.309.309,0,0,0,0-.4l-1.442-1.612a.242.242,0,0,0-.361,0Z" transform="translate(-3015.255 -797.048)" fill="#39a9ed" stroke="#39a9ed" stroke-width="0.5"/>
      </g>
      <g id="Group_18803" data-name="Group 18803" transform="translate(0.567 11.028)">
        <path id="Path_28661" data-name="Path 28661" d="M3003.847,877.423a.31.31,0,0,1-.232-.107l-1.03-1.151a.4.4,0,0,1-.071-.4l.856-2.339a.371.371,0,0,1,.072-.12l.818-.914a.3.3,0,0,1,.464,0,.4.4,0,0,1,0,.518l-.771.862-.749,2.046.722.807,1.83-.837.771-.862a.3.3,0,0,1,.464,0,.4.4,0,0,1,0,.518l-.818.914a.329.329,0,0,1-.108.08l-2.093.957A.3.3,0,0,1,3003.847,877.423Z" transform="translate(-3002.489 -872.285)" fill="#39a9ed" stroke="#39a9ed" stroke-width="0.5"/>
      </g>
      <g id="Group_18804" data-name="Group 18804" transform="translate(0 14.858)">
        <path id="Path_28662" data-name="Path 28662" d="M2998.495,900.35a.31.31,0,0,1-.232-.107.4.4,0,0,1,0-.518l1.082-1.209a.3.3,0,0,1,.463,0,.4.4,0,0,1,0,.518l-1.082,1.209A.31.31,0,0,1,2998.495,900.35Z" transform="translate(-2998.167 -898.408)" fill="#39a9ed" stroke="#39a9ed" stroke-width="0.5"/>
      </g>
      <g id="Group_18805" data-name="Group 18805" transform="translate(9.29 4.337)">
        <path id="Path_28663" data-name="Path 28663" d="M3069.337,834.544a.31.31,0,0,1-.232-.107.4.4,0,0,1,0-.518l4.005-4.477a1.217,1.217,0,0,0,0-1.584l-.534-.6a.4.4,0,0,1,0-.518.3.3,0,0,1,.464,0l.534.6a2.014,2.014,0,0,1,0,2.62l-4.005,4.477A.31.31,0,0,1,3069.337,834.544Z" transform="translate(-3069.009 -826.635)" fill="#39a9ed" stroke="#39a9ed" stroke-width="0.5"/>
      </g>
      <g id="Group_18806" data-name="Group 18806" transform="translate(8.517 4.013)">
        <path id="Path_28664" data-name="Path 28664" d="M3065.71,827.691a.311.311,0,0,1-.232-.107l-2.267-2.534a.4.4,0,0,1,0-.518.3.3,0,0,1,.464,0l2.267,2.534a.4.4,0,0,1,0,.518A.31.31,0,0,1,3065.71,827.691Z" transform="translate(-3063.115 -824.424)" fill="#39a9ed" stroke="#39a9ed" stroke-width="0.5"/>
      </g>
    </g>
    <g id="Group_21624" data-name="Group 21624" transform="translate(126.95 19.346)">
      <path id="Path_28665" data-name="Path 28665" d="M2942.7,790.493h-15.78v-30.81h20.3v5.789a.33.33,0,1,1-.656,0v-5.056h-18.988V789.76H2942.7a1.022,1.022,0,0,0,.959-1.073v-2.173h1.944a1.023,1.023,0,0,0,.96-1.073v-7.585a.33.33,0,1,1,.656,0v7.585a1.721,1.721,0,0,1-1.616,1.806h-1.288v1.44A1.721,1.721,0,0,1,2942.7,790.493Z" transform="translate(-2926.922 -759.683)" fill="#39a9ed" stroke="#39a9ed" stroke-width="0.5"/>
    </g>
    <g id="Group_21625" data-name="Group 21625" transform="translate(128.589 46.533)">
      <path id="Path_28666" data-name="Path 28666" d="M2953.54,946.946v-1.79h-14.117v1.79Z" transform="translate(-2939.423 -945.156)" fill="#39a9ed" stroke="#39a9ed" stroke-width="0.5"/>
    </g>
  </g>
</svg>
