<svg xmlns="http://www.w3.org/2000/svg" width="17" height="17" viewBox="0 0 17 17">
  <g id="essentials_security_face-id" data-name="essentials/security/face-id" transform="translate(-3 -3.004)">
    <path id="Fill-23" d="M3.5,9A.5.5,0,0,1,3,8.5v-2A3.5,3.5,0,0,1,6.5,3h2a.5.5,0,0,1,0,1h-2A2.5,2.5,0,0,0,4,6.5v2a.5.5,0,0,1-.5.5m16,0a.5.5,0,0,1-.5-.5v-2A2.5,2.5,0,0,0,16.5,4h-2a.5.5,0,0,1,0-1h2A3.5,3.5,0,0,1,20,6.5v2a.5.5,0,0,1-.5.5m-11,2a.5.5,0,0,1-.5-.5v-2a.5.5,0,0,1,1,0v2a.5.5,0,0,1-.5.5m6,0a.5.5,0,0,1-.5-.5v-2a.5.5,0,0,1,1,0v2a.5.5,0,0,1-.5.5m-4,2a.5.5,0,0,1,0-1,.5.5,0,0,0,.5-.5v-3a.5.5,0,0,1,1,0v3A1.5,1.5,0,0,1,10.5,13m1,3a3.9,3.9,0,0,1-2.854-1.146.5.5,0,0,1,.708-.708A2.882,2.882,0,0,0,11.5,15a2.882,2.882,0,0,0,2.146-.854.5.5,0,0,1,.708.708A3.9,3.9,0,0,1,11.5,16m-3,4h-2A3.5,3.5,0,0,1,3,16.5v-2a.5.5,0,1,1,1,0v2A2.5,2.5,0,0,0,6.5,19h2a.5.5,0,0,1,0,1m8,0h-2a.5.5,0,0,1,0-1h2A2.5,2.5,0,0,0,19,16.5v-2a.5.5,0,0,1,1,0v2A3.5,3.5,0,0,1,16.5,20" fill="#009ade" fill-rule="evenodd"/>
  </g>
</svg>
