<svg xmlns="http://www.w3.org/2000/svg" width="19.073" height="19.072" viewBox="0 0 19.073 19.072">
  <g id="fingerprint" transform="translate(-0.001 -0.121)">
    <path id="Path_38569" data-name="Path 38569" d="M130.4,138.188a.318.318,0,0,0,.272.576,4.128,4.128,0,0,1,1.247-.367.318.318,0,0,0-.081-.632A4.779,4.779,0,0,0,130.4,138.188Zm0,0" transform="translate(-125.359 -132.507)" fill="#b2b2b2"/>
    <path id="Path_38570" data-name="Path 38570" d="M59.293,368.852a.324.324,0,0,0,.1-.016.318.318,0,0,0,.2-.4,3.138,3.138,0,0,1-.162-1.013v-.812a.318.318,0,0,0-.637,0v.831a3.744,3.744,0,0,0,.195,1.2A.318.318,0,0,0,59.293,368.852Zm0,0" transform="translate(-56.602 -352.507)" fill="#b2b2b2"/>
    <path id="Path_38571" data-name="Path 38571" d="M60.445,166.175a4.147,4.147,0,0,1,.549-.543.318.318,0,1,0-.4-.492,4.967,4.967,0,0,0-1.525,2.208,4.853,4.853,0,0,0-.267,1.594v2.677a.318.318,0,0,0,.637,0v-2.677A4.3,4.3,0,0,1,60.445,166.175Zm0,0" transform="translate(-56.602 -158.793)" fill="#b2b2b2"/>
    <path id="Path_38572" data-name="Path 38572" d="M204.414,142.642a.306.306,0,0,0,.046,0,.318.318,0,0,0,.269-.361,5.01,5.01,0,0,0-4.176-4.255.318.318,0,0,0-.09.63,4.37,4.37,0,0,1,3.637,3.717A.318.318,0,0,0,204.414,142.642Zm0,0" transform="translate(-192.72 -132.754)" fill="#b2b2b2"/>
    <path id="Path_38573" data-name="Path 38573" d="M131.83,207.236a2.4,2.4,0,0,0-2.384-2.315,2.2,2.2,0,0,0-.411.037,2.375,2.375,0,0,0-1.42.825,2.3,2.3,0,0,0-.546,1.354,1.119,1.119,0,0,0-.01.173v1.5c0,.6,0,1.316,0,2.076a3.755,3.755,0,0,0,1.377,2.914l.343.281c2.256,1.85,2.26,1.854,2.286,1.871a.314.314,0,0,0,.175.053.318.318,0,0,0,.195-.573c-.061-.047-1.125-.92-2.252-1.845l-.344-.279a3.13,3.13,0,0,1-1.144-2.442c0-.741,0-1.46,0-2.055v-1.5a.65.65,0,0,1,.006-.106,1.7,1.7,0,0,1,.4-1.012,1.746,1.746,0,0,1,1.047-.607,1.565,1.565,0,0,1,.3-.026,1.757,1.757,0,0,1,1.748,1.7.209.209,0,0,0,0,.048v1.624a3.746,3.746,0,0,0,.5,1.878.318.318,0,1,0,.551-.318,3.131,3.131,0,0,1-.419-1.582v-1.6A.609.609,0,0,0,131.83,207.236Zm0,0" transform="translate(-122.317 -197.159)" fill="#b2b2b2"/>
    <path id="Path_38574" data-name="Path 38574" d="M164.818,247.833a.318.318,0,0,0,.278-.567c-.029-.022-.1-.081-.209-.169l-.285-.231a.351.351,0,0,0-.029-.026c-.392-.318-.961-.783-1.592-1.3a3.127,3.127,0,0,1-1.146-2.425V242.7c0-.635,0-1.21,0-1.655v-.895a.474.474,0,0,1,.139-.338.48.48,0,0,1,.308-.14.45.45,0,0,1,.335.13.553.553,0,0,1,.173.4v.506c0,.4,0,.976,0,1.649v.037a3.772,3.772,0,0,0,1.369,2.892c.131.109.259.215.378.311a.318.318,0,1,0,.4-.495l-.374-.307a3.137,3.137,0,0,1-1.139-2.4v-.037c0-.669,0-1.249,0-1.647V240.2a1.192,1.192,0,0,0-.372-.862,1.086,1.086,0,0,0-.81-.3,1.119,1.119,0,0,0-.721.325,1.107,1.107,0,0,0-.325.789v.895c0,.446,0,1.023,0,1.655v.42a3.761,3.761,0,0,0,1.381,2.917c.615.5,1.173.958,1.563,1.276a.35.35,0,0,0,.03.027l.313.255C164.757,247.813,164.757,247.813,164.818,247.833Zm0,0" transform="translate(-155.18 -229.997)" fill="#b2b2b2"/>
    <path id="Path_38575" data-name="Path 38575" d="M62.443,1.815a.318.318,0,0,0,.144-.035A9.4,9.4,0,0,1,68.85.974a.318.318,0,0,0,.137-.622,10.033,10.033,0,0,0-6.688.861.318.318,0,0,0,.145.6Zm0,0" transform="translate(-59.806 0)" fill="#b2b2b2"/>
    <path id="Path_38576" data-name="Path 38576" d="M268.583,16.1a9.122,9.122,0,0,1,1.163.513.318.318,0,0,0,.3-.563,9.769,9.769,0,0,0-1.244-.55.318.318,0,0,0-.216.6Zm0,0" transform="translate(-258.359 -14.788)" fill="#b2b2b2"/>
    <path id="Path_38577" data-name="Path 38577" d="M19.6,37.494a.319.319,0,0,0,.23-.1,8.089,8.089,0,0,1,7.959-2.23.318.318,0,1,0,.168-.614,8.723,8.723,0,0,0-8.587,2.4.318.318,0,0,0,.23.538Zm0,0" transform="translate(-18.564 -32.856)" fill="#b2b2b2"/>
    <path id="Path_38578" data-name="Path 38578" d="M273.624,53.241a.333.333,0,0,0-.066-.015.315.315,0,0,0-.058-.012h0a.28.28,0,0,0-.045.009.188.188,0,0,0-.127.048.3.3,0,0,0-.049.032.312.312,0,0,0-.046.064.307.307,0,0,0-.024.034v0a.366.366,0,0,0-.013.06.323.323,0,0,0-.013.064v0a.264.264,0,0,0,.008.04.318.318,0,0,0,.016.079.308.308,0,0,0,.032.052.324.324,0,0,0,.034.05.316.316,0,0,0,.064.046.261.261,0,0,0,.034.024,8.236,8.236,0,0,1,3.163,2.47.318.318,0,0,0,.5-.391,8.866,8.866,0,0,0-3.406-2.659Zm0,0" transform="translate(-262.987 -51.113)" fill="#b2b2b2"/>
    <path id="Path_38579" data-name="Path 38579" d="M70.4,78.22A6.727,6.727,0,0,1,72.428,77.2a.318.318,0,1,0-.186-.609,7.364,7.364,0,0,0-2.222,1.111.318.318,0,0,0,.377.513Zm0,0" transform="translate(-67.282 -73.607)" fill="#b2b2b2"/>
    <path id="Path_38580" data-name="Path 38580" d="M.221,132.561a.318.318,0,0,0,.4-.2,6.731,6.731,0,0,1,1.512-2.551.318.318,0,1,0-.464-.436A7.365,7.365,0,0,0,.017,132.16.318.318,0,0,0,.221,132.561Zm0,0" transform="translate(0 -124.328)" fill="#b2b2b2"/>
    <path id="Path_38581" data-name="Path 38581" d="M169.351,75.39l.035,0a.318.318,0,0,0,.282-.35,7.46,7.46,0,0,0-7.432-6.652,7.677,7.677,0,0,0-.831.046.318.318,0,1,0,.069.633,6.992,6.992,0,0,1,.761-.043,6.824,6.824,0,0,1,6.8,6.084A.318.318,0,0,0,169.351,75.39Zm0,0" transform="translate(-155.108 -65.718)" fill="#b2b2b2"/>
    <path id="Path_38582" data-name="Path 38582" d="M301.8,158.488h.028a.318.318,0,0,0,.29-.345,6.288,6.288,0,0,0-1.567-3.636.318.318,0,0,0-.474.425,5.646,5.646,0,0,1,1.407,3.266A.318.318,0,0,0,301.8,158.488Zm0,0" transform="translate(-288.809 -148.527)" fill="#b2b2b2"/>
    <path id="Path_38583" data-name="Path 38583" d="M25.8,106.458a5.552,5.552,0,0,1,5.221-3.27.324.324,0,0,0,.327-.31.318.318,0,0,0-.31-.327,6.189,6.189,0,0,0-5.818,3.642,6.121,6.121,0,0,0-.551,2.24c0,.105-.007.214-.007.322,0,.712,0,1.094,0,1.134a.316.316,0,0,0,.318.3H25a.32.32,0,0,0,.3-.331c0-.084,0-1.047,0-1.1,0-.1,0-.2.006-.295A5.479,5.479,0,0,1,25.8,106.458Zm0,0" transform="translate(-23.743 -98.607)" fill="#b2b2b2"/>
    <path id="Path_38584" data-name="Path 38584" d="M222.662,108.084a5.375,5.375,0,0,1,1.7.788.319.319,0,0,0,.364-.523,6.016,6.016,0,0,0-1.9-.882l-.117-.029a.318.318,0,0,0-.154.618Zm0,0" transform="translate(-214.02 -103.307)" fill="#b2b2b2"/>
    <path id="Path_38585" data-name="Path 38585" d="M99.647,175.933a.318.318,0,0,0,.631-.086,2.837,2.837,0,0,1-.026-.393v-.917a3.664,3.664,0,0,0-6.813-1.949,3.557,3.557,0,0,0-.477,1.39,3.467,3.467,0,0,0-.032.473v4.177a3.757,3.757,0,0,0,1.377,2.914l.639.526c.626.515,1.213,1,1.655,1.357a.318.318,0,1,0,.4-.493c-.441-.36-1.026-.841-1.652-1.355l-.64-.526a3.13,3.13,0,0,1-1.146-2.438v-4.161a2.887,2.887,0,0,1,.026-.39,2.925,2.925,0,0,1,.394-1.146,3.024,3.024,0,0,1,5.628,1.622v.933A3.418,3.418,0,0,0,99.647,175.933Zm0,0" transform="translate(-89.462 -164.302)" fill="#b2b2b2"/>
    <path id="Path_38586" data-name="Path 38586" d="M293.507,289.316a4.139,4.139,0,1,0,4.145,4.139A4.138,4.138,0,0,0,293.507,289.316Zm0,7.64a3.5,3.5,0,1,1,3.509-3.5A3.5,3.5,0,0,1,293.507,296.957Zm0,0" transform="translate(-278.578 -278.406)" fill="#b2b2b2"/>
    <path id="Path_38587" data-name="Path 38587" d="M336.514,357.948l-2.958,2.958-1.048-1.048a.318.318,0,0,0-.45.45l1.048,1.048a.637.637,0,0,0,.9,0l2.958-2.958a.318.318,0,0,0-.45-.45Zm0,0" transform="translate(-319.582 -344.391)" fill="#b2b2b2"/>
  </g>
</svg>
