<svg xmlns="http://www.w3.org/2000/svg" width="21.729" height="21.053" viewBox="0 0 21.729 21.053">
  <g id="font-size" transform="translate(0 -7.969)">
    <path id="Path_38498" data-name="Path 38498" d="M228.122,220.465a.464.464,0,0,0,.069-.411l-.828-2.66a.46.46,0,0,0-.441-.325h0a.46.46,0,0,0-.441.323l-.836,2.66h0a.462.462,0,0,0,.441.6h1.665A.464.464,0,0,0,228.122,220.465Zm-1.8-.448.6-1.9.592,1.9Z" transform="translate(-216.048 -200.226)" fill="#009ade"/>
    <path id="Path_38499" data-name="Path 38499" d="M159.286,126.931h1.023l.331,1.062a1.308,1.308,0,1,0,2.5-.778s-2.848-9.138-2.862-9.173a1.48,1.48,0,0,0-2.739,0c-.014.033-2.886,9.167-2.886,9.167a1.308,1.308,0,1,0,2.5.785l.335-1.066h.676a.318.318,0,0,0,0-.637h-.7a.6.6,0,0,0-.575.422l-.342,1.089a.672.672,0,1,1-1.282-.4s2.861-9.1,2.868-9.117a.844.844,0,0,1,1.561,0c.008.018,2.843,9.12,2.843,9.12a.672.672,0,1,1-1.283.4l-.338-1.086a.6.6,0,0,0-.576-.424h-1.047a.318.318,0,1,0,0,.637Z" transform="translate(-148.029 -104.523)" fill="#009ade"/>
    <path id="Path_38500" data-name="Path 38500" d="M21.729,18.5a1.5,1.5,0,0,0-1.183-1.467v-6.09A1.5,1.5,0,1,0,18.76,9.152H12.374a1.5,1.5,0,0,0-2.935,0h-3a.318.318,0,1,0,0,.637h3a1.5,1.5,0,0,0,2.935,0H18.76a1.506,1.506,0,0,0,1.149,1.149v6.09a1.5,1.5,0,0,0,0,2.935v6.026A1.506,1.506,0,0,0,18.748,27.2H12.374a1.5,1.5,0,0,0-2.935,0H2.981A1.505,1.505,0,0,0,1.82,25.989V19.963a1.5,1.5,0,0,0,0-2.935v-6.09A1.506,1.506,0,0,0,2.969,9.789h2.2a.318.318,0,1,0,0-.637h-2.2a1.5,1.5,0,1,0-1.786,1.786v6.09a1.5,1.5,0,0,0,0,2.935v6.026a1.5,1.5,0,1,0,1.771,1.849H9.44a1.5,1.5,0,0,0,2.935,0h6.4a1.5,1.5,0,1,0,1.771-1.849V19.963A1.5,1.5,0,0,0,21.729,18.5Zm-10.822-8.16a.865.865,0,1,1,.865-.865A.866.866,0,0,1,10.907,10.336ZM.637,9.471a.865.865,0,1,1,.865.865A.866.866,0,0,1,.637,9.471Zm0,9.025a.865.865,0,1,1,.865.865A.866.866,0,0,1,.637,18.5ZM1.5,28.322a.865.865,0,1,1,.865-.865A.866.866,0,0,1,1.5,28.322Zm9.405.064a.865.865,0,1,1,.865-.865A.866.866,0,0,1,10.907,28.385ZM19.363,9.471a.865.865,0,1,1,.865.865A.866.866,0,0,1,19.363,9.471Zm0,9.025a.865.865,0,1,1,.865.865.866.866,0,0,1-.865-.865Zm1.73,8.961a.865.865,0,1,1-.865-.865A.866.866,0,0,1,21.093,27.457Z" fill="#009ade"/>
  </g>
</svg>
