<svg xmlns="http://www.w3.org/2000/svg" width="31.947" height="29.909" viewBox="0 0 31.947 29.909">
  <g id="Layer_2" data-name="Layer 2" transform="translate(-1.475 12.923) rotate(-45)">
    <path id="Path_38351" data-name="Path 38351" d="M2.824,15.244a6.061,6.061,0,0,1,1.294-1.911l4.54-4.54a2,2,0,0,1,3.378,1.035,1.988,1.988,0,0,1,2.827,1.414,1.974,1.974,0,0,1,2.791,1.283l4.439-4.439a2.048,2.048,0,0,1,2.828,0,2,2,0,0,1,0,2.828l-9.879,9.88a.126.126,0,0,0-.029.145.123.123,0,0,0,.123.082h2.253a3.518,3.518,0,0,1,3.162,1.954,1.482,1.482,0,0,1-1.035,2.117l-5.81,1.162a16.442,16.442,0,0,1-2.752.319h-.168a6.763,6.763,0,0,1-4.743-2.012L4.279,22.8a6.828,6.828,0,0,1-1.455-7.556Zm2.162,6.847L6.75,23.856a5.7,5.7,0,0,0,4.176,1.717,15.278,15.278,0,0,0,2.584-.3l5.81-1.162a.483.483,0,0,0,.336-.689,2.521,2.521,0,0,0-2.267-1.4H15.136a1.133,1.133,0,0,1-.8-1.934l9.88-9.88a1,1,0,0,0,0-1.414,1.023,1.023,0,0,0-1.414,0l-5.655,5.654-.706.706a.5.5,0,1,1-.707-.707l.708-.709a1,1,0,0,0-1.415-1.412l-1.061,1.06a.5.5,0,1,1-.707-.707l.354-.353A1,1,0,0,0,12.2,10.911l-1.061,1.061a.5.5,0,1,1-.707-.707l.354-.354A1,1,0,0,0,9.369,9.5l-4.54,4.541a5.057,5.057,0,0,0-1.081,1.6,5.831,5.831,0,0,0,1.238,6.45Z" transform="translate(-2.262 -2.552)" fill="#b2b2b2"/>
    <path id="Path_38352" data-name="Path 38352" d="M23,7.494l-3.948.646a.562.562,0,0,1-.081.006.5.5,0,0,1-.08-.994l2.835-.463A9.688,9.688,0,0,0,15.187,5.3,9.824,9.824,0,0,0,9.366,8.318a.5.5,0,0,1-.732-.682A10.829,10.829,0,0,1,15.048,4.31,10.661,10.661,0,0,1,22.22,5.822l-.44-2.689a.5.5,0,1,1,.988-.161l.646,3.947A.5.5,0,0,1,23,7.494Z" transform="translate(-6.413 -2.552)" fill="#b2b2b2"/>
  </g>
</svg>
