<svg xmlns="http://www.w3.org/2000/svg" width="34.394" height="28.004" viewBox="0 0 34.394 28.004">
  <g id="Group_21622" data-name="Group 21622" transform="translate(0.262 0.25)">
    <path id="Path_131" data-name="Path 131" d="M1906.71,1039.494l-1.047-.938c-.271-.263-.988-.936-1.731-1.633-.878-.823-1.791-1.679-2.038-1.927a5.469,5.469,0,0,1-1.591-4.821,4.452,4.452,0,0,1,.355-1.035,3.7,3.7,0,0,1,2.59-2.057,3.152,3.152,0,0,1,.58-.055,3.164,3.164,0,0,0,5.762,0,3.138,3.138,0,0,1,.58.055,3.709,3.709,0,0,1,2.59,2.057,4.332,4.332,0,0,1,.356,1.041,5.469,5.469,0,0,1-1.592,4.814c-.252.252-1.193,1.135-2.085,1.971-.726.681-1.419,1.331-1.673,1.578Zm-2.881-11.679a2.512,2.512,0,0,0-.464.044,2.982,2.982,0,0,0-2.089,1.658,3.614,3.614,0,0,0-.289.843,4.628,4.628,0,0,0,1.376,4.05c.245.246,1.151,1.094,2.021,1.91.748.7,1.469,1.378,1.73,1.632l.6.534.607-.544c.245-.239.942-.892,1.672-1.577.884-.829,1.818-1.705,2.067-1.955a4.673,4.673,0,0,0,1.378-4.045,3.519,3.519,0,0,0-.29-.846,2.99,2.99,0,0,0-2.09-1.659,2.509,2.509,0,0,0-.463-.044c-1.739,0-2.551,1.991-2.56,2.012l-.319.8-.323-.8C1906.355,1029.746,1905.556,1027.815,1903.829,1027.815Z" transform="translate(-1889.774 -1027.029)" fill="#2ed8aa" stroke="#2ed8aa" stroke-linecap="round" stroke-width="0.5"/>
    <g id="Group_6453" data-name="Group 6453" transform="translate(0 2.102)">
      <g id="Group_6451" data-name="Group 6451" transform="translate(0 0)">
        <path id="Path_132" data-name="Path 132" d="M1842.494,1050.964a.338.338,0,0,1-.278-.151l-.808-1.156a.423.423,0,0,1-.069-.174l-1.051-6.769a.821.821,0,0,0-.3-.531.683.683,0,0,0-.571-.126l-1.07.237a.356.356,0,0,1-.414-.31.393.393,0,0,1,.277-.462l1.07-.237a1.322,1.322,0,0,1,1.105.248,1.615,1.615,0,0,1,.6,1.044l1.036,6.673.753,1.079a.425.425,0,0,1-.061.552A.325.325,0,0,1,1842.494,1050.964Z" transform="translate(-1835.907 -1041.182)" fill="#2ed8aa" stroke="#2ed8aa" stroke-linecap="round" stroke-width="0.5"/>
        <path id="Path_133" data-name="Path 133" d="M1858.771,1052.957a.341.341,0,0,1-.287-.166l-.8-1.26a.421.421,0,0,1-.059-.156c-.145-.866-.28-1.8-.423-2.781-.122-.84-.25-1.719-.394-2.63a.821.821,0,0,0-.3-.531.684.684,0,0,0-.571-.126l-.579.128a.356.356,0,0,1-.414-.31.394.394,0,0,1,.277-.462l.579-.128a1.322,1.322,0,0,1,1.105.249,1.613,1.613,0,0,1,.6,1.044c.145.915.273,1.8.4,2.641.137.945.267,1.841.406,2.677l.756,1.19a.424.424,0,0,1-.083.548A.326.326,0,0,1,1858.771,1052.957Z" transform="translate(-1850.592 -1043.935)" fill="#2ed8aa" stroke="#2ed8aa" stroke-linecap="round" stroke-width="0.5"/>
        <path id="Path_134" data-name="Path 134" d="M1873.158,1060.34s-.479-2.8-.792-4.776a.822.822,0,0,0-.3-.531.683.683,0,0,0-.571-.126l-.458.1a.355.355,0,0,1-.413-.31.394.394,0,0,1,.277-.462l.458-.1a1.322,1.322,0,0,1,1.1.249,1.615,1.615,0,0,1,.6,1.044c.312,1.976.79,4.765.79,4.765Z" transform="translate(-1864.129 -1052.068)" fill="#2ed8aa" stroke="#2ed8aa" stroke-linecap="round" stroke-width="0.5"/>
        <path id="Path_135" data-name="Path 135" d="M1833.343,1116.254a.374.374,0,0,1-.352-.393v-4.413c-.43-.962-1.437-1.62-3.073-2.008l-.5-.115a6.509,6.509,0,0,1-3.45-1.531,6.887,6.887,0,0,1-1.261-2.033,32.055,32.055,0,0,1-1.484-3.953,1.333,1.333,0,0,1,.319-1.343,1.027,1.027,0,0,1,1.245-.188,4.359,4.359,0,0,1,2.006,2.069l.149.383c.339.9.569,1.394,1.359,1.22a1.91,1.91,0,0,0,.448-.179,5.281,5.281,0,0,1,6.095,1.085.427.427,0,0,1,.023.556.327.327,0,0,1-.5.026,4.617,4.617,0,0,0-5.328-.952,2.483,2.483,0,0,1-.605.236c-1.388.307-1.824-.845-2.142-1.686l-.14-.359a3.613,3.613,0,0,0-1.673-1.692.389.389,0,0,0-.473.07.49.49,0,0,0-.118.5,31.166,31.166,0,0,0,1.445,3.849,6.217,6.217,0,0,0,1.107,1.807,6.011,6.011,0,0,0,3.115,1.342l.51.117c1.912.454,3.089,1.279,3.6,2.525a.431.431,0,0,1,.032.164v4.5A.374.374,0,0,1,1833.343,1116.254Z" transform="translate(-1823.159 -1091.078)" fill="#2ed8aa" stroke="#2ed8aa" stroke-linecap="round" stroke-width="0.5"/>
        <path id="Path_136" data-name="Path 136" d="M1893.513,1116.573a.374.374,0,0,1-.352-.394v-8.35a9.9,9.9,0,0,0-1.19-3.841c-1.125-2.01-2.761-2.421-4.343-2.818l-.543-.139a.4.4,0,0,1-.26-.474.352.352,0,0,1,.424-.291l.534.137c1.643.412,3.5.88,4.786,3.169a10.8,10.8,0,0,1,1.3,4.222v8.386A.374.374,0,0,1,1893.513,1116.573Z" transform="translate(-1878.115 -1091.17)" fill="#2ed8aa" stroke="#2ed8aa" stroke-linecap="round" stroke-width="0.5"/>
        <path id="Path_137" data-name="Path 137" d="M1829.651,1051.425a.338.338,0,0,1-.269-.14l-.976-1.3a.416.416,0,0,1-.078-.19l-1.11-7.658a.682.682,0,0,0-.247-.443.561.561,0,0,0-.468-.11.766.766,0,0,0-.556.834l.915,7.809a.387.387,0,0,1-.3.441.362.362,0,0,1-.395-.339l-.916-7.815a1.541,1.541,0,0,1,1.127-1.7,1.2,1.2,0,0,1,1,.24,1.478,1.478,0,0,1,.536.96l1.094,7.551.913,1.212a.426.426,0,0,1-.042.554A.328.328,0,0,1,1829.651,1051.425Z" transform="translate(-1824.955 -1040.789)" fill="#2ed8aa" stroke="#2ed8aa" stroke-linecap="round" stroke-width="0.5"/>
      </g>
      <g id="Group_6452" data-name="Group 6452" transform="translate(18.122 0)">
        <path id="Path_138" data-name="Path 138" d="M2021.756,1050.964a.326.326,0,0,1-.216-.083.425.425,0,0,1-.061-.552l.753-1.079,1.036-6.673a1.613,1.613,0,0,1,.6-1.043,1.322,1.322,0,0,1,1.1-.249l1.07.237a.394.394,0,0,1,.277.462.355.355,0,0,1-.414.309l-1.07-.237a.681.681,0,0,0-.571.126.817.817,0,0,0-.3.531l-1.051,6.769a.416.416,0,0,1-.069.173l-.808,1.156A.339.339,0,0,1,2021.756,1050.964Z" transform="translate(-2012.594 -1041.182)" fill="#2ed8aa" stroke="#2ed8aa" stroke-linecap="round" stroke-width="0.5"/>
        <path id="Path_139" data-name="Path 139" d="M2010.1,1052.957a.327.327,0,0,1-.2-.073.424.424,0,0,1-.083-.549l.756-1.19c.139-.836.269-1.732.406-2.678.122-.843.25-1.726.4-2.641a1.614,1.614,0,0,1,.6-1.043,1.322,1.322,0,0,1,1.105-.249l.579.128a.393.393,0,0,1,.277.462.355.355,0,0,1-.414.31l-.579-.128a.683.683,0,0,0-.571.126.82.82,0,0,0-.3.531c-.144.912-.272,1.791-.394,2.631-.143.984-.278,1.915-.423,2.781a.412.412,0,0,1-.059.156l-.8,1.26A.341.341,0,0,1,2010.1,1052.957Z" transform="translate(-2002.527 -1043.935)" fill="#2ed8aa" stroke="#2ed8aa" stroke-linecap="round" stroke-width="0.5"/>
        <path id="Path_140" data-name="Path 140" d="M2001.742,1060.34l-.691-.148s.478-2.789.79-4.765a1.615,1.615,0,0,1,.6-1.043,1.321,1.321,0,0,1,1.105-.249l.458.1a.394.394,0,0,1,.277.462.355.355,0,0,1-.413.31l-.458-.1a.682.682,0,0,0-.571.126.82.82,0,0,0-.3.531C2002.221,1057.544,2001.742,1060.34,2001.742,1060.34Z" transform="translate(-1995.022 -1052.068)" fill="#2ed8aa" stroke="#2ed8aa" stroke-linecap="round" stroke-width="0.5"/>
        <path id="Path_141" data-name="Path 141" d="M1987.467,1116.254a.374.374,0,0,1-.352-.393v-4.5a.427.427,0,0,1,.032-.164c.51-1.245,1.688-2.071,3.6-2.525l.51-.117a6.014,6.014,0,0,0,3.115-1.341,6.222,6.222,0,0,0,1.106-1.807,31.244,31.244,0,0,0,1.446-3.85.491.491,0,0,0-.118-.5.39.39,0,0,0-.473-.07,3.613,3.613,0,0,0-1.673,1.692l-.14.359c-.318.841-.754,1.993-2.144,1.685a2.488,2.488,0,0,1-.6-.236,4.617,4.617,0,0,0-5.327.952.327.327,0,0,1-.5-.026.426.426,0,0,1,.023-.556,5.281,5.281,0,0,1,6.094-1.086,1.9,1.9,0,0,0,.447.18c.791.175,1.021-.324,1.36-1.22l.149-.383a4.357,4.357,0,0,1,2.006-2.069,1.027,1.027,0,0,1,1.245.188,1.334,1.334,0,0,1,.319,1.343,32,32,0,0,1-1.485,3.953,6.888,6.888,0,0,1-1.26,2.033,6.508,6.508,0,0,1-3.45,1.531l-.5.115c-1.636.388-2.643,1.046-3.073,2.008v4.413A.374.374,0,0,1,1987.467,1116.254Z" transform="translate(-1981.903 -1091.078)" fill="#2ed8aa" stroke="#2ed8aa" stroke-linecap="round" stroke-width="0.5"/>
        <path id="Path_142" data-name="Path 142" d="M1957.287,1116.573a.375.375,0,0,1-.352-.394v-8.35a10.8,10.8,0,0,1,1.3-4.258c1.281-2.289,3.143-2.757,4.786-3.169l.534-.137a.352.352,0,0,1,.424.291.4.4,0,0,1-.26.474l-.543.139c-1.582.4-3.218.808-4.343,2.818a9.906,9.906,0,0,0-1.191,3.877v8.314A.374.374,0,0,1,1957.287,1116.573Z" transform="translate(-1956.935 -1091.17)" fill="#2ed8aa" stroke="#2ed8aa" stroke-linecap="round" stroke-width="0.5"/>
        <path id="Path_143" data-name="Path 143" d="M2035.6,1051.425a.327.327,0,0,1-.226-.093.426.426,0,0,1-.043-.554l.913-1.212,1.094-7.551a1.48,1.48,0,0,1,.537-.961,1.2,1.2,0,0,1,1-.24,1.539,1.539,0,0,1,1.127,1.7l-.917,7.821a.361.361,0,0,1-.395.339.387.387,0,0,1-.3-.441l.915-7.815a.765.765,0,0,0-.557-.829.562.562,0,0,0-.468.11.683.683,0,0,0-.246.444l-1.11,7.658a.415.415,0,0,1-.078.19l-.976,1.3A.337.337,0,0,1,2035.6,1051.425Z" transform="translate(-2024.543 -1040.789)" fill="#2ed8aa" stroke="#2ed8aa" stroke-linecap="round" stroke-width="0.5"/>
      </g>
    </g>
  </g>
</svg>
