<svg xmlns="http://www.w3.org/2000/svg" width="19.124" height="17" viewBox="0 0 19.124 17">
  <path id="Path_40091" data-name="Path 40091" d="M9.556-6.392A1.073,1.073,0,0,1,8.493-5.326H7.431L7.454-.01a2.387,2.387,0,0,1-.017.269V.8A1.328,1.328,0,0,1,6.109,2.125H5.578c-.037,0-.073-.03-.11,0-.046-.027-.093,0-.139,0H3.453A1.328,1.328,0,0,1,2.125.8V-2.125A1.061,1.061,0,0,0,1.063-3.187H-1.062A1.061,1.061,0,0,0-2.125-2.125V.8A1.328,1.328,0,0,1-3.453,2.125H-5.309c-.05,0-.1,0-.149-.007s-.08.007-.12.007h-.531A1.328,1.328,0,0,1-7.438.8V-2.922c0-.03,0-.063,0-.093V-5.326H-8.5A1.052,1.052,0,0,1-9.563-6.392a1.079,1.079,0,0,1,.332-.8l8.513-7.42a.957.957,0,0,1,.73-.266,1.117,1.117,0,0,1,.7.233L9.191-7.188a.9.9,0,0,1,.365.8Z" transform="translate(9.563 14.875)" fill="#009ade"/>
</svg>
