<svg xmlns="http://www.w3.org/2000/svg" width="62.226" height="39.139" viewBox="0 0 62.226 39.139">
  <g id="logo-horizontal-colour" transform="translate(73.63 -0.568)">
    <g id="Group_6392" data-name="Group 6392" transform="translate(-14.742 0.568)">
      <g id="Group_3" data-name="Group 3" transform="translate(-58.888 0)">
        <path id="Path_1" data-name="Path 1" d="M148.175,33.409l-8.133-13.272,8.133-13.272h16.267l3.31,5.4a.633.633,0,0,0,.541.3h6.273a.591.591,0,0,0,.541-.885l-5.172-8.441a5.753,5.753,0,0,0-4.9-2.666H147.585a5.751,5.751,0,0,0-4.9,2.666l-8.725,14.238a5.083,5.083,0,0,0,0,5.333l8.725,14.236a5.748,5.748,0,0,0,4.9,2.666h9.6a.59.59,0,0,0,.542-.884L154.588,33.7a.633.633,0,0,0-.541-.294h-5.871Z" transform="translate(-133.202 -0.568)" fill="#fff" fill-rule="evenodd"/>
        <g id="Group_1" data-name="Group 1" transform="translate(20.235 0)">
          <path id="Path_2" data-name="Path 2" d="M27.566,6.824,35.7,20.1,27.566,33.368H11.3l-3.31-5.4a.634.634,0,0,0-.541-.3H1.175a.59.59,0,0,0-.541.884L5.805,37a5.751,5.751,0,0,0,4.9,2.666H28.157A5.75,5.75,0,0,0,33.059,37l8.725-14.237a5.083,5.083,0,0,0,0-5.333L33.058,3.193a5.744,5.744,0,0,0-4.9-2.666h-9.6a.591.591,0,0,0-.543.884L21.154,6.53a.633.633,0,0,0,.541.294Z" transform="translate(-0.549 -0.527)" fill="#fff" fill-rule="evenodd"/>
        </g>
      </g>
    </g>
  </g>
</svg>
