<svg xmlns="http://www.w3.org/2000/svg" width="30.167" height="27.878" viewBox="0 0 30.167 27.878">
  <g id="Group_19745" data-name="Group 19745" transform="translate(-12806.819 -4316.364)">
    <g id="Group_18833" data-name="Group 18833" transform="translate(12822.104 4327.504)">
      <g id="Group_18831" data-name="Group 18831" transform="translate(4.349 5.944)">
        <g id="Group_18830" data-name="Group 18830">
          <path id="Path_28681" data-name="Path 28681" d="M1509.093,589l-2.693-2.4a.328.328,0,1,1,.436-.489l2.183,1.947,3.3-4.034a.328.328,0,1,1,.507.415Z" transform="translate(-1506.29 -583.899)" fill="#008cd5"/>
        </g>
      </g>
      <g id="Group_18832" data-name="Group 18832" transform="translate(0 0)">
        <path id="Path_28682" data-name="Path 28682" d="M1480.544,555.278l-.093-.027c-3.549-1.049-5.93-3.869-6.886-8.156a20.365,20.365,0,0,1-.377-6.164l.038-.325.325.038a8.987,8.987,0,0,0,6.77-1.9l.223-.206.223.206a9.025,9.025,0,0,0,6.769,1.9l.325-.038.038.325a20.365,20.365,0,0,1-.377,6.164c-.956,4.286-3.337,7.107-6.886,8.156Zm-6.734-13.949a20.3,20.3,0,0,0,.4,5.64c.908,4.051,3.039,6.616,6.336,7.626,3.3-1.01,5.428-3.575,6.336-7.626a20.307,20.307,0,0,0,.4-5.64,12.8,12.8,0,0,0-13.467,0Z" transform="translate(-1473.103 -538.54)" fill="#008cd5"/>
      </g>
    </g>
    <g id="Group_18851" data-name="Group 18851" transform="translate(12806.819 4316.364)">
      <g id="Group_18842" data-name="Group 18842" transform="translate(6.881 6.18)">
        <path id="Path_28687" data-name="Path 28687" d="M1417.161,502.68h0l-2.421,0-3.215,0h0a2.269,2.269,0,0,1-1.535-.6l-.9-.827a.328.328,0,0,1,.442-.483l.9.827a1.615,1.615,0,0,0,1.093.424h0l3.216,0,2.422,0h0a1.614,1.614,0,0,0,1.092-.424l.9-.827a.328.328,0,0,1,.442.483l-.9.827A2.269,2.269,0,0,1,1417.161,502.68Z" transform="translate(-1408.974 -500.687)" fill="#008cd5"/>
      </g>
      <g id="Group_18843" data-name="Group 18843" transform="translate(16.721 9.6)">
        <path id="Path_28688" data-name="Path 28688" d="M1484.388,529.746a.328.328,0,0,1-.328-.328v-.649a1.651,1.651,0,0,1,1.405-1.625l2.567-.353a.328.328,0,1,1,.089.649l-2.564.353a.992.992,0,0,0-.842.976v.649A.328.328,0,0,1,1484.388,529.746Z" transform="translate(-1484.06 -526.788)" fill="#008cd5"/>
      </g>
      <g id="Group_18844" data-name="Group 18844" transform="translate(3.196 9.6)">
        <path id="Path_28689" data-name="Path 28689" d="M1385.2,529.745h-4.017a.328.328,0,1,1,0-.655h3.362v-.321a.992.992,0,0,0-.845-.977l-2.562-.353a.328.328,0,0,1,.089-.649l2.564.353a1.651,1.651,0,0,1,1.408,1.625Z" transform="translate(-1380.857 -526.787)" fill="#008cd5"/>
      </g>
      <g id="Group_18845" data-name="Group 18845" transform="translate(1.208 8.035)">
        <path id="Path_28690" data-name="Path 28690" d="M1366.014,521.611a.328.328,0,0,1-.328-.328v-6.115a.328.328,0,1,1,.655,0v6.115A.328.328,0,0,1,1366.014,521.611Z" transform="translate(-1365.686 -514.84)" fill="#008cd5"/>
      </g>
      <g id="Group_18846" data-name="Group 18846" transform="translate(0 0)">
        <path id="Path_28691" data-name="Path 28691" d="M1379.191,463.784a.328.328,0,0,1-.328-.328V461.89a.327.327,0,0,1,.087-.222l1.018-1.106.018-.018a.268.268,0,0,0,.085-.2v-1.206a.267.267,0,0,0-.267-.267h-2.324a.328.328,0,0,1-.291-.176l-2-3.831a1.792,1.792,0,0,0-1.4-.685H1363.4a1.792,1.792,0,0,0-1.4.685l-2,3.831a.328.328,0,0,1-.291.176h-2.324a.267.267,0,0,0-.267.267v1.206a.268.268,0,0,0,.085.2l.018.018,1.018,1.106a.328.328,0,0,1-.482.444l-1.011-1.1a.925.925,0,0,1-.284-.666v-1.206a.923.923,0,0,1,.922-.922h2.125l1.92-3.68a.327.327,0,0,1,.029-.046,2.45,2.45,0,0,1,1.943-.965h10.383a2.45,2.45,0,0,1,1.943.965.323.323,0,0,1,.029.046l1.92,3.68h2.125a.923.923,0,0,1,.922.922v1.206a.925.925,0,0,1-.284.666l-.924,1v1.438A.328.328,0,0,1,1379.191,463.784Z" transform="translate(-1356.466 -453.528)" fill="#008cd5"/>
      </g>
      <g id="Group_18847" data-name="Group 18847" transform="translate(1.208 14.15)">
        <path id="Path_28692" data-name="Path 28692" d="M1367.88,564.256a2.2,2.2,0,0,1-2.194-2.194v-.228a.328.328,0,1,1,.655,0v.228a1.539,1.539,0,1,0,3.078,0v-.228a.328.328,0,0,1,.655,0v.228A2.2,2.2,0,0,1,1367.88,564.256Z" transform="translate(-1365.686 -561.506)" fill="#008cd5"/>
      </g>
      <g id="Group_18848" data-name="Group 18848" transform="translate(3.196 14.15)">
        <path id="Path_28693" data-name="Path 28693" d="M1391.738,562.161h-10.553a.328.328,0,1,1,0-.655h10.553a.328.328,0,0,1,0,.655Z" transform="translate(-1380.857 -561.506)" fill="#008cd5"/>
      </g>
      <g id="Group_18849" data-name="Group 18849" transform="translate(10.333 11.903)">
        <path id="Path_28694" data-name="Path 28694" d="M1438.584,545.016h-2.94a.328.328,0,1,1,0-.655h2.94a.328.328,0,1,1,0,.655Z" transform="translate(-1435.317 -544.361)" fill="#008cd5"/>
      </g>
      <g id="Group_18850" data-name="Group 18850" transform="translate(5.041 4.692)">
        <path id="Path_28695" data-name="Path 28695" d="M1408.785,489.988h-13.524a.328.328,0,1,1,0-.655h13.524a.328.328,0,1,1,0,.655Z" transform="translate(-1394.933 -489.333)" fill="#008cd5"/>
      </g>
    </g>
    <g id="Group_19430" data-name="Group 19430" transform="translate(12823.747 4329.41)">
      <path id="Path_29128" data-name="Path 29128" d="M1491.441,555.88a21.855,21.855,0,0,1,5.741.752c.051-.7.061-1.319.053-1.816a10.57,10.57,0,0,0-11.589,0c-.009.5,0,1.121.049,1.818A21.849,21.849,0,0,1,1491.441,555.88Z" transform="translate(-1485.641 -553.086)" fill="#008cd5"/>
    </g>
  </g>
</svg>
