<svg xmlns="http://www.w3.org/2000/svg" width="28.47" height="28.622" viewBox="0 0 28.47 28.622">
  <g id="Group_19742" data-name="Group 19742" transform="translate(0 0)">
    <g id="Group_6503" data-name="Group 6503" transform="translate(14.097 12.452)">
      <path id="Path_262" data-name="Path 262" d="M1072.677,1140.036l-2.6-2.32a.316.316,0,1,1,.422-.472l2.108,1.88,3.186-3.9a.316.316,0,1,1,.49.4Z" transform="translate(-1065.77 -1129.368)" fill="#008cd5"/>
      <path id="Path_263" data-name="Path 263" d="M1043.981,1089.753l.215.2a7.027,7.027,0,0,0,1.46.952,8.846,8.846,0,0,0,3.99.946,9.346,9.346,0,0,0,1.089-.065l.314-.037.037.314a16.391,16.391,0,0,1,.08,1.81c0,.635-.033,1.273-.092,1.9a18.339,18.339,0,0,1-.352,2.25,12.245,12.245,0,0,1-2.009,4.645,8.788,8.788,0,0,1-1.931,1.92,8.964,8.964,0,0,1-2.713,1.314l-.09.026-.09-.026a8.972,8.972,0,0,1-2.713-1.314,8.793,8.793,0,0,1-1.931-1.92,12.257,12.257,0,0,1-2.009-4.645,18.387,18.387,0,0,1-.351-2.25c-.059-.622-.09-1.26-.092-1.9a16.4,16.4,0,0,1,.08-1.81l.037-.314.315.037a9.3,9.3,0,0,0,1.087.064,8.85,8.85,0,0,0,4.013-.957,6.93,6.93,0,0,0,1.44-.941Zm5.666,2.73a9.469,9.469,0,0,1-4.3-1.025,1.517,1.517,0,0,0-2.736,0,9.472,9.472,0,0,1-4.3,1.025c-.277,0-.558-.012-.838-.036-.023.3-.051.8-.048,1.44,0,.617.033,1.236.091,1.839a17.7,17.7,0,0,0,.341,2.17,11.6,11.6,0,0,0,1.9,4.4,8.147,8.147,0,0,0,1.79,1.778,3.072,3.072,0,0,0,4.857,0,8.148,8.148,0,0,0,1.79-1.778,11.605,11.605,0,0,0,1.9-4.4,17.655,17.655,0,0,0,.341-2.17c.058-.6.089-1.222.091-1.839,0-.635-.025-1.139-.048-1.44C1050.206,1092.471,1049.924,1092.483,1049.647,1092.483Z" transform="translate(-1036.795 -1089.753)" fill="#008cd5"/>
    </g>
    <g id="Group_6504" data-name="Group 6504" transform="translate(0)">
      <path id="Path_265" data-name="Path 265" d="M959.014,1053.862H948.205v-16.587h16.586v6.962a.326.326,0,1,1-.652,0v-6.31H948.857v15.283h10.156a.326.326,0,0,1,0,.652Z" transform="translate(-945.324 -1031.467)" fill="#008cd5"/>
      <path id="Path_266" data-name="Path 266" d="M946.343,994.3H926.9a1.45,1.45,0,1,1,0-2.9h19.448a1.45,1.45,0,1,1,0,2.9ZM926.9,992.047a.8.8,0,1,0,0,1.6h19.448a.8.8,0,1,0,0-1.6Z" transform="translate(-925.445 -991.395)" fill="#008cd5"/>
      <path id="Line_115" data-name="Line 115" d="M-2.249,1.637a.326.326,0,0,1-.326-.326v-3.56a.326.326,0,0,1,.326-.326.326.326,0,0,1,.326.326v3.56A.326.326,0,0,1-2.249,1.637Z" transform="translate(8.556 4.823)" fill="#008cd5"/>
      <path id="Line_116" data-name="Line 116" d="M-2.249,1.637a.326.326,0,0,1-.326-.326v-3.56a.326.326,0,0,1,.326-.326.326.326,0,0,1,.326.326v3.56A.326.326,0,0,1-2.249,1.637Z" transform="translate(18.291 4.823)" fill="#008cd5"/>
      <path id="Path_32763" data-name="Path 32763" d="M1852.7,357.3a3.4,3.4,0,1,1-4.8,4.8,4.122,4.122,0,1,0,4.8-4.8Z" transform="translate(-1842.258 -347.885)" fill="none" stroke="#008cd5" stroke-width="0.5"/>
    </g>
    <path id="Path_267" data-name="Path 267" d="M1054.919,1107.779a21.121,21.121,0,0,1,5.546.726c.049-.672.058-1.273.051-1.755a10.408,10.408,0,0,1-5.6-1.671,10.405,10.405,0,0,1-5.6,1.671c-.009.481,0,1.083.048,1.756A21.108,21.108,0,0,1,1054.919,1107.779Z" transform="translate(-1033.634 -1090.688)" fill="#008cd5"/>
  </g>
</svg>
