<svg xmlns="http://www.w3.org/2000/svg" width="19.125" height="17" viewBox="0 0 19.125 17">
  <path id="Path_40094" data-name="Path 40094" d="M-9.562-12.75a2.125,2.125,0,0,1,2.125-2.125h5.313v4.25A1.061,1.061,0,0,0-1.062-9.562h4.25V-8L.106-6.767A1.857,1.857,0,0,0-1.062-5.04,8.934,8.934,0,0,0,2.065,1.873a2.09,2.09,0,0,1-1,.252h-8.5A2.126,2.126,0,0,1-9.562,0Zm8.5,2.125v-4.25l4.25,4.25ZM4.486-7.381a.791.791,0,0,1,.591,0L9.061-5.787a.8.8,0,0,1,.5.74A7.51,7.51,0,0,1,5.087,2.065a.811.811,0,0,1-.611,0A7.51,7.51,0,0,1,0-5.047a.759.759,0,0,1,.5-.74Zm.3,1.6V.455a5.844,5.844,0,0,0,3.168-5Z" transform="translate(9.563 14.875)" fill="#009ade"/>
</svg>
