<svg xmlns="http://www.w3.org/2000/svg" width="27" height="19" viewBox="0 0 27 19">
  <path id="Path_28643" data-name="Path 28643" d="M1.929-20h9.643A1.914,1.914,0,0,1,13.5-18.1a1.914,1.914,0,0,1-1.929,1.9H1.929A1.914,1.914,0,0,1,0-18.1,1.914,1.914,0,0,1,1.929-20Zm13.5,15.2h9.643A1.914,1.914,0,0,1,27-2.9,1.914,1.914,0,0,1,25.071-1H15.429A1.914,1.914,0,0,1,13.5-2.9,1.914,1.914,0,0,1,15.429-4.8Zm-13.5-7.6H25.071A1.914,1.914,0,0,1,27-10.5a1.914,1.914,0,0,1-1.929,1.9H1.929A1.914,1.914,0,0,1,0-10.5,1.914,1.914,0,0,1,1.929-12.4Z" transform="translate(0 20)" fill="#fff"/>
</svg>
