<svg xmlns="http://www.w3.org/2000/svg" width="20" height="22" viewBox="0 0 20 22">
  <path id="notification" d="M23.141,15.767l-2.077-2.049v-3.49a7.679,7.679,0,0,0-6.922-7.586V1.125H12.6V2.642a7.74,7.74,0,0,0-6.922,7.586v3.49L3.6,15.767a.686.686,0,0,0-.23.531v2.276a.707.707,0,0,0,.21.551.728.728,0,0,0,.559.207H9.527a3.846,3.846,0,0,0,7.691,0H22.6a.728.728,0,0,0,.559-.207.707.707,0,0,0,.21-.551V16.3A.686.686,0,0,0,23.141,15.767Zm-9.768,5.841a2.292,2.292,0,0,1-2.307-2.276H15.68a2.292,2.292,0,0,1-2.307,2.276Zm8.46-3.793H4.912V16.6l2.077-2.049a.686.686,0,0,0,.23-.531V10.228a6.153,6.153,0,0,1,12.306,0v3.793a.686.686,0,0,0,.23.531L21.833,16.6Z" transform="translate(-3.373 -1.125)" fill="#fff"/>
</svg>
