<svg xmlns="http://www.w3.org/2000/svg" width="17.519" height="18.512" viewBox="0 0 17.519 18.512">
  <g id="padlock" transform="translate(-1)">
    <path id="Path_38567" data-name="Path 38567" d="M16.11,11.753v-.339l-1.5,1.5h2.074a.578.578,0,0,1,.578.578v8.1a.578.578,0,0,1-.578.578H6.275a.579.579,0,0,1-.542-.375l-.843.843a1.733,1.733,0,0,0,1.385.689H16.688a1.735,1.735,0,0,0,1.735-1.735v-8.1a1.735,1.735,0,0,0-1.735-1.735Z" transform="translate(-1.64 -4.811)" fill="#b2b2b2"/>
    <path id="Path_38568" data-name="Path 38568" d="M14.408,3.871a4.628,4.628,0,0,0-9.194.757V6.942H4.635A1.735,1.735,0,0,0,2.9,8.677v6.7L1.169,17.11a.578.578,0,0,0,.818.818L18.35,1.566a.578.578,0,0,0-.818-.818ZM4.057,14.223,10.181,8.1H4.635a.578.578,0,0,0-.578.578Zm7.281-7.281H6.371V4.628a3.471,3.471,0,0,1,6.942,0v.339Z" transform="translate(0)" fill="#b2b2b2" fill-rule="evenodd"/>
  </g>
</svg>
