<svg xmlns="http://www.w3.org/2000/svg" width="133.315" height="128.054" viewBox="0 0 133.315 128.054">
  <g id="AdobeStock_508245452_Converted_" data-name="AdobeStock_508245452 [Converted]" transform="translate(0)">
    <g id="Group_6611" data-name="Group 6611" transform="translate(0 0)">
      <g id="Group_6610" data-name="Group 6610">
        <g id="Group_6605" data-name="Group 6605" transform="translate(5.454 7.659)">
          <path id="Path_4736" data-name="Path 4736" d="M921.8,941.593a.622.622,0,0,1-.069-1.24l.114-.013a.622.622,0,1,1,.141,1.236l-.117.013A.594.594,0,0,1,921.8,941.593Zm6.831-1.177a.622.622,0,0,1-.141-1.228l.112-.026a.622.622,0,1,1,.285,1.211l-.115.027A.628.628,0,0,1,928.632,940.416Zm6.646-1.971a.622.622,0,0,1-.212-1.207l.108-.039a.622.622,0,0,1,.426,1.169l-.11.04A.621.621,0,0,1,935.277,938.445Zm6.367-2.739a.622.622,0,0,1-.279-1.178l.1-.052a.622.622,0,0,1,.56,1.111l-.1.053A.622.622,0,0,1,941.644,935.706Zm6-3.466a.622.622,0,0,1-.342-1.141l.1-.063a.622.622,0,1,1,.686,1.038l-.1.065A.62.62,0,0,1,947.647,932.24ZM953.2,928.1a.622.622,0,0,1-.4-1.1l.088-.074a.622.622,0,0,1,.8.951l-.09.076A.619.619,0,0,1,953.2,928.1Zm5.039-4.759a.622.622,0,0,1-.452-1.048l.079-.084a.622.622,0,0,1,.907.851l-.081.086A.62.62,0,0,1,958.243,923.339Zm4.452-5.312a.622.622,0,0,1-.5-.993l.069-.092a.622.622,0,0,1,1,.74l-.07.094A.622.622,0,0,1,962.695,918.028Zm3.8-5.794a.622.622,0,0,1-.538-.932l.057-.1a.622.622,0,1,1,1.079.619l-.059.1A.622.622,0,0,1,966.5,912.234Z" transform="translate(-855.39 -822.207)" fill="#366088"/>
          <path id="Path_4737" data-name="Path 4737" d="M1185.5,182.569a.621.621,0,0,1-.5-.256l-.068-.093a.622.622,0,1,1,1-.733l.069.1a.622.622,0,0,1-.5.987Zm-4.393-5.361a.62.62,0,0,1-.457-.2l-.078-.085a.622.622,0,0,1,.913-.845l.08.086a.622.622,0,0,1-.457,1.043Zm-4.986-4.815a.619.619,0,0,1-.405-.15l-.088-.075a.622.622,0,0,1,.809-.945l.089.077a.622.622,0,0,1-.406,1.094Zm-5.511-4.2a.618.618,0,0,1-.347-.106l-.1-.064a.622.622,0,1,1,.693-1.033l.1.066a.622.622,0,0,1-.349,1.138Z" transform="translate(-1077.795 -156.887)" fill="#366088"/>
          <path id="Path_4738" data-name="Path 4738" d="M706.84,75.8a.622.622,0,0,1-.168-1.221l.113-.032a.622.622,0,0,1,.333,1.2l-.111.031A.623.623,0,0,1,706.84,75.8Zm27.584-1.069a.627.627,0,0,1-.121-.012l-.113-.022a.622.622,0,1,1,.239-1.221l.115.023a.622.622,0,0,1-.12,1.232Zm-20.813-.406a.622.622,0,0,1-.1-1.236l.116-.018a.622.622,0,0,1,.19,1.229l-.114.018A.628.628,0,0,1,713.612,74.326Zm13.946-.537-.049,0-.115-.009a.622.622,0,0,1,.094-1.24l.117.009a.622.622,0,0,1-.048,1.242Zm-7.047-.136a.622.622,0,0,1-.024-1.243l.118,0a.622.622,0,0,1,.046,1.243l-.115,0Z" transform="translate(-663.164 -72.404)" fill="#366088"/>
          <path id="Path_4739" data-name="Path 4739" d="M299.762,235.606l-.051,0a.622.622,0,0,1-.57-.67l.01-.117a.622.622,0,0,1,1.24.1l-.009.115A.622.622,0,0,1,299.762,235.606Zm.958-6.865a.623.623,0,0,1-.61-.744l.023-.115a.622.622,0,1,1,1.219.246l-.023.113A.622.622,0,0,1,300.721,228.741Zm1.756-6.7a.622.622,0,0,1-.591-.815l.037-.112a.622.622,0,0,1,1.182.388l-.036.109A.622.622,0,0,1,302.477,222.036Zm2.532-6.452a.622.622,0,0,1-.564-.883l.05-.107a.622.622,0,1,1,1.128.524l-.048.1A.622.622,0,0,1,305.009,215.585Zm3.272-6.11a.622.622,0,0,1-.53-.947l.062-.1a.622.622,0,1,1,1.059.652l-.06.1A.622.622,0,0,1,308.281,209.474Zm3.963-5.687a.622.622,0,0,1-.488-1.007l.073-.092a.622.622,0,0,1,.976.771l-.071.09A.621.621,0,0,1,312.244,203.788Zm4.6-5.188a.622.622,0,0,1-.441-1.061l.083-.083a.622.622,0,0,1,.88.879l-.081.081A.62.62,0,0,1,316.841,198.6Zm5.168-4.619a.622.622,0,0,1-.387-1.109l.092-.073a.622.622,0,0,1,.772.975l-.09.072A.62.62,0,0,1,322.008,193.981Z" transform="translate(-299.14 -179.945)" fill="#366088"/>
          <circle id="Ellipse_17" data-name="Ellipse 17" cx="43.523" cy="43.523" r="43.523" transform="translate(16.184 16.336)" fill="#a4edf5"/>
        </g>
        <g id="Group_6606" data-name="Group 6606" transform="translate(0 51.968)">
          <path id="Path_4740" data-name="Path 4740" d="M538.862,787.08l3.791,3.791,1.338,1.338c1.7,1.7,1.963,4.188.59,5.561l15.985-15.985c-1.373,1.373-3.863,1.108-5.561-.59l-1.338-1.338-3.791-3.791c-2.076-2.076-5.148-2.4-6.825-.723l-4.913,4.913C536.461,781.932,536.787,785,538.862,787.08Z" transform="translate(-506.448 -744.345)" fill="#fff"/>
          <path id="Path_4740_-_Outline" data-name="Path 4740 - Outline" d="M539.318,793.133a.622.622,0,0,1-.44-1.062c1.128-1.128.863-3.228-.59-4.682l-5.129-5.129c-2.324-2.324-2.648-5.78-.723-7.7l4.913-4.913a4.455,4.455,0,0,1,3.19-1.256,6.5,6.5,0,0,1,4.514,1.979l5.129,5.128a4.163,4.163,0,0,0,2.878,1.287,2.484,2.484,0,0,0,1.8-.7.622.622,0,0,1,.88.879l-15.985,15.985A.62.62,0,0,1,539.318,793.133Zm1.221-23.5a3.18,3.18,0,0,0-2.311.891l-4.913,4.913a3.312,3.312,0,0,0-.867,2.758,5.37,5.37,0,0,0,1.59,3.187l5.129,5.129a5.438,5.438,0,0,1,1.644,3.628l12.113-12.113a5.444,5.444,0,0,1-3.623-1.649l-5.129-5.129A5.248,5.248,0,0,0,540.54,769.632Z" transform="translate(-501.185 -739.087)" fill="#366088"/>
          <path id="Path_4741" data-name="Path 4741" d="M600.287,810.446l9.372,9.372a4.154,4.154,0,0,1,0,5.857l-21.2,21.2a4.154,4.154,0,0,1-5.857,0l-9.372-9.372a4.154,4.154,0,0,1,0-5.857l21.2-21.2A4.154,4.154,0,0,1,600.287,810.446Z" transform="translate(-537.703 -775.615)" fill="#d0fdff"/>
          <path id="Path_4741_-_Outline" data-name="Path 4741 - Outline" d="M592.078,803.358a4.73,4.73,0,0,1,3.368,1.39l9.372,9.372a4.769,4.769,0,0,1,0,6.737l-21.2,21.2a4.776,4.776,0,0,1-6.737,0l-9.372-9.372a4.769,4.769,0,0,1,0-6.737l21.2-21.2A4.73,4.73,0,0,1,592.078,803.358Zm-11.833,38.85a3.5,3.5,0,0,0,2.489-1.026l21.2-21.2a3.524,3.524,0,0,0,0-4.978l-9.372-9.372a3.532,3.532,0,0,0-4.978,0l-21.2,21.2a3.524,3.524,0,0,0,0,4.978l9.372,9.372A3.494,3.494,0,0,0,580.245,842.207Z" transform="translate(-532.421 -770.357)" fill="#366088"/>
          <path id="Path_4742" data-name="Path 4742" d="M763.523,981.924l-5.334-5.334L739.38,995.4l5.334,5.334" transform="translate(-687.364 -925.268)" fill="#d0fdff"/>
          <path id="Path_4742_-_Outline" data-name="Path 4742 - Outline" d="M739.456,996.1a.621.621,0,0,1-.44-.182l-5.334-5.334a.622.622,0,0,1,0-.879l18.809-18.809a.622.622,0,0,1,.88,0l5.334,5.334a.622.622,0,0,1-.88.879l-4.894-4.894L735,990.141l4.894,4.894a.622.622,0,0,1-.44,1.062Z" transform="translate(-682.106 -920.01)" fill="#366088"/>
          <path id="Path_4743" data-name="Path 4743" d="M657.876,875.8l4.035,4.035a2.477,2.477,0,0,1,0,3.492L645.938,899.3a2.477,2.477,0,0,1-3.492,0l-4.035-4.035a2.477,2.477,0,0,1,0-3.492L654.384,875.8A2.477,2.477,0,0,1,657.876,875.8Z" transform="translate(-596.429 -834.494)" fill="#fff"/>
          <path id="Path_4743_-_Outline" data-name="Path 4743 - Outline" d="M650.872,869.2a3.07,3.07,0,0,1,2.186.9l4.035,4.035a3.1,3.1,0,0,1,0,4.372l-15.974,15.974a3.1,3.1,0,0,1-4.372,0l-4.035-4.035a3.1,3.1,0,0,1,0-4.372L648.686,870.1A3.07,3.07,0,0,1,650.872,869.2Zm-11.939,24.941a1.834,1.834,0,0,0,1.306-.538l15.973-15.974a1.849,1.849,0,0,0,0-2.613l-4.035-4.035a1.855,1.855,0,0,0-2.613,0l-15.973,15.974a1.855,1.855,0,0,0,0,2.613l4.035,4.035A1.834,1.834,0,0,0,638.933,894.141Z" transform="translate(-591.171 -829.236)" fill="#366088"/>
          <rect id="Rectangle_47" data-name="Rectangle 47" width="8.495" height="5.314" rx="2.657" transform="translate(41.184 44.246) rotate(-135)" fill="#d0fdff"/>
          <path id="Rectangle_47_-_Outline" data-name="Rectangle 47 - Outline" d="M2.127,0H7.612A2.129,2.129,0,0,1,9.739,2.127v2.3A2.129,2.129,0,0,1,7.612,6.557H2.127A2.129,2.129,0,0,1,0,4.43v-2.3A2.129,2.129,0,0,1,2.127,0ZM7.612,5.314a.884.884,0,0,0,.883-.883v-2.3a.884.884,0,0,0-.883-.883H2.127a.884.884,0,0,0-.883.883v2.3a.884.884,0,0,0,.883.883Z" transform="translate(41.184 45.126) rotate(-135)" fill="#366088"/>
          <path id="Path_4744" data-name="Path 4744" d="M327.6,548l8.445,6.188c2.067,2.067,2.314,5.2.551,6.962l-19.189,19.189c-1.763,1.763-4.9,1.516-6.962-.551l-6.188-8.445c-1.668-2.276-1.637-5.176.073-6.887l16.385-16.385c1.71-1.71,4.61-1.741,6.887-.073Z" transform="translate(-297.16 -540.903)" fill="#d0fdff"/>
          <path id="Path_4744_-_Outline" data-name="Path 4744 - Outline" d="M318.734,540.885a6.8,6.8,0,0,1,3.967,1.351c.016.012.032.025.047.038l8.4,6.152c2.386,2.376,2.633,5.894.623,7.9L312.58,575.519a4.776,4.776,0,0,1-3.415,1.358,6.347,6.347,0,0,1-4.427-1.909l-6.25-8.517c-1.852-2.527-1.8-5.763.135-7.694l16.385-16.385A5.212,5.212,0,0,1,318.734,540.885Zm3.185,2.32a5.535,5.535,0,0,0-3.185-1.076,3.978,3.978,0,0,0-2.848,1.121L299.5,559.635c-1.493,1.494-1.5,4.051-.011,6.08l6.188,8.445a5.074,5.074,0,0,0,3.485,1.473,3.542,3.542,0,0,0,2.536-.994l19.189-19.189c1.525-1.525,1.278-4.254-.551-6.083l-8.373-6.126Q321.941,543.224,321.92,543.2Z" transform="translate(-291.893 -535.645)" fill="#366088"/>
          <path id="Path_4745" data-name="Path 4745" d="M429.227,685.3l3.478,3.478,12.307-12.307L441.534,673a3.832,3.832,0,0,0-5.4,0l-6.9,6.9A3.832,3.832,0,0,0,429.227,685.3Z" transform="translate(-409.018 -652.788)" fill="#fff"/>
          <path id="Path_4745_-_Outline" data-name="Path 4745 - Outline" d="M427.425,684.145a.62.62,0,0,1-.44-.182l-3.478-3.478a4.448,4.448,0,0,1,0-6.283l6.9-6.9a4.454,4.454,0,0,1,6.283,0l3.478,3.478a.622.622,0,0,1,0,.879l-12.307,12.307A.62.62,0,0,1,427.425,684.145Zm6.127-16.9a3.175,3.175,0,0,0-2.262.932l-6.9,6.9a3.2,3.2,0,0,0,0,4.524l3.038,3.038,11.427-11.427-3.038-3.038A3.175,3.175,0,0,0,433.553,667.246Z" transform="translate(-403.738 -647.529)" fill="#366088"/>
          <path id="Path_4746" data-name="Path 4746" d="M253.45,516.029l5.334,5.334,18.809-18.809-5.334-5.334" transform="translate(-252.828 -496.598)" fill="#d0fdff"/>
          <path id="Path_4746_-_Outline" data-name="Path 4746 - Outline" d="M253.526,516.727a.62.62,0,0,1-.44-.182l-5.334-5.334a.622.622,0,1,1,.88-.88l4.894,4.894,17.93-17.93-4.894-4.894a.622.622,0,0,1,.88-.879l5.334,5.334a.622.622,0,0,1,0,.88l-18.809,18.809A.62.62,0,0,1,253.526,516.727Z" transform="translate(-247.57 -491.34)" fill="#366088"/>
        </g>
        <g id="Group_6607" data-name="Group 6607" transform="translate(75.23 31.604)">
          <path id="Path_4747" data-name="Path 4747" d="M1224.9,437.912c.855-5.084,3.211-13.762,10.523-19.943.894-.759,2.159-2.943,2.711-2.014.187.316,8.065,0,8.065,0l-9.536,32.24L1224.9,437.912Z" transform="translate(-1196.764 -403.362)" fill="#d0fdff"/>
          <path id="Path_4747_-_Outline" data-name="Path 4747 - Outline" d="M1231.405,443.559a.622.622,0,0,1-.409-.154l-11.763-10.283a.622.622,0,0,1-.2-.571c1.006-5.978,3.685-14.355,10.735-20.315a8.545,8.545,0,0,0,.81-.882c.683-.808,1.272-1.506,1.963-1.506a.963.963,0,0,1,.71.311,17.809,17.809,0,0,0,1.8.056c2.349,0,5.831-.139,5.866-.14a.622.622,0,0,1,.621.8L1232,443.114a.622.622,0,0,1-.6.445Zm-11.09-11.144,10.769,9.415,9.015-30.48c-1.2.042-3.4.109-5.049.109-1.9,0-2.375-.062-2.607-.306a10.3,10.3,0,0,0-.919,1,9.074,9.074,0,0,1-.956,1.028C1223.936,418.792,1221.329,426.669,1220.315,432.415Z" transform="translate(-1191.505 -398.104)" fill="#366088"/>
          <path id="Path_4748" data-name="Path 4748" d="M1300.69,413.168l10.567-40.5c1.2-3.385-.729-6.843-3.525-7.558a5.616,5.616,0,0,0-6.072,2.943c-2.557,9.925-7.671,29.774-7.671,29.774L1289.08,414l11.609-.829Z" transform="translate(-1254.155 -357.97)" fill="#fff"/>
          <path id="Path_4748_-_Outline" data-name="Path 4748 - Outline" d="M1283.822,409.362a.622.622,0,0,1-.6-.8l4.909-16.175,7.664-29.748a.624.624,0,0,1,.059-.148,6.478,6.478,0,0,1,5.494-3.4,5.152,5.152,0,0,1,1.275.158,5.753,5.753,0,0,1,3.579,2.934,6.763,6.763,0,0,1,.379,5.435l-10.551,40.452a.622.622,0,0,1-.557.463l-11.61.83Zm13.161-46.335-7.651,29.694-4.653,15.335,10.262-.733,10.455-40.073a5.557,5.557,0,0,0-.288-4.485,4.51,4.51,0,0,0-2.789-2.313,3.919,3.919,0,0,0-.968-.119A5.209,5.209,0,0,0,1296.983,363.027Z" transform="translate(-1248.898 -352.712)" fill="#366088"/>
          <path id="Path_4749" data-name="Path 4749" d="M1024.794,636.476a5.144,5.144,0,0,1-1.83-2.582c-1.219-4.416,5.154-10.585,11.472-12.85a14.769,14.769,0,0,1,9.749-.587c3.994,1.247,6.82,3.783,7.09,5.14.115.584,0,11.363,0,11.363" transform="translate(-1016.05 -585.908)" fill="#d0fdff"/>
          <path id="Path_4749_-_Outline" data-name="Path 4749 - Outline" d="M1046.044,632.314h-.007a.622.622,0,0,1-.615-.629c.043-4.06.084-10.7.01-11.249-.189-.948-2.646-3.4-6.662-4.654a14.227,14.227,0,0,0-9.354.579c-5.944,2.131-12.213,8-11.083,12.1a4.42,4.42,0,0,0,1.616,2.26.622.622,0,0,1-.772.975,5.63,5.63,0,0,1-2.043-2.9c-1.322-4.79,5.291-11.245,11.862-13.6a15.361,15.361,0,0,1,10.145-.6c4.081,1.274,7.18,3.931,7.514,5.613.119.6.039,8.947.012,11.491A.622.622,0,0,1,1046.044,632.314Z" transform="translate(-1010.819 -580.64)" fill="#366088"/>
          <path id="Path_4750" data-name="Path 4750" d="M1344.184,319.659a3.059,3.059,0,0,1-1.437.165c-2.869-.4-4.041-5.258-4.128-5.635-.27-1.176-1.2-5,1.282-7.554a7.218,7.218,0,0,1,7.176-1.636.967.967,0,0,1,.663,1.181q-1.068,3.979-2.135,7.959l-1.422,5.521Z" transform="translate(-1298.103 -304.059)" fill="#d0fdff"/>
          <path id="Path_4750_-_Outline" data-name="Path 4750 - Outline" d="M1337.865,315.213a3.376,3.376,0,0,1-.462-.032c-3.258-.453-4.516-5.534-4.649-6.112-.315-1.369-1.235-5.371,1.442-8.126a7.362,7.362,0,0,1,5.356-2.143,8.965,8.965,0,0,1,2.435.342,1.589,1.589,0,0,1,1.095,1.94l-2.134,7.959-1.421,5.514a.622.622,0,0,1-.4.431A3.807,3.807,0,0,1,1337.865,315.213Zm1.687-15.169a6.131,6.131,0,0,0-4.464,1.766c-2.2,2.27-1.4,5.775-1.134,6.926.395,1.719,1.641,4.938,3.62,5.213a2.13,2.13,0,0,0,.292.02,2.407,2.407,0,0,0,.545-.065l1.335-5.179,2.136-7.965a.347.347,0,0,0-.229-.421A7.729,7.729,0,0,0,1339.552,300.044Z" transform="translate(-1292.844 -298.801)" fill="#366088"/>
          <path id="Path_4751" data-name="Path 4751" d="M993.145,776.98H969.116a4.367,4.367,0,0,0-4.366,4.372v3.417a4.373,4.373,0,0,0,4.123,4.363h33.575a9.533,9.533,0,0,0,6.283-2.435,8.968,8.968,0,0,0,2.993-5.973v-.005a4.283,4.283,0,0,0-.282-1.04,4.379,4.379,0,0,0-2.017-2.2" transform="translate(-964.128 -726.406)" fill="#fff"/>
          <path id="Path_4751_-_Outline" data-name="Path 4751 - Outline" d="M963.615,784.5a5.123,5.123,0,0,1-3.284-1.458,5.069,5.069,0,0,1-1.46-3.524v-3.419a5,5,0,0,1,4.988-4.994h24.029a.622.622,0,0,1,0,1.244H963.858a3.752,3.752,0,0,0-3.744,3.75v3.417a3.751,3.751,0,0,0,3.539,3.742h33.536a8.9,8.9,0,0,0,5.864-2.272,8.366,8.366,0,0,0,2.791-5.522,4,4,0,0,0-.235-.8,3.753,3.753,0,0,0-1.731-1.89.622.622,0,1,1,.578-1.1,5,5,0,0,1,2.3,2.518,4.9,4.9,0,0,1,.323,1.189,9.469,9.469,0,0,1-3.189,6.523,10.164,10.164,0,0,1-6.7,2.6Z" transform="translate(-958.87 -721.148)" fill="#366088"/>
          <circle id="Ellipse_18" data-name="Ellipse 18" cx="8.599" cy="8.599" r="8.599" transform="translate(28.638 39.452)" fill="#d0fdff"/>
          <path id="Ellipse_18_-_Outline" data-name="Ellipse 18 - Outline" d="M3.341-5.88A9.221,9.221,0,1,1-5.88,3.341,9.231,9.231,0,0,1,3.341-5.88Zm0,17.2A7.977,7.977,0,1,0-4.636,3.341,7.986,7.986,0,0,0,3.341,11.317Z" transform="translate(33.896 44.71)" fill="#366088"/>
        </g>
        <g id="Group_6609" data-name="Group 6609" transform="translate(34.231)">
          <g id="Group_6608" data-name="Group 6608" transform="translate(0 12.967)">
            <path id="Path_4752" data-name="Path 4752" d="M644.4,150.373a10.314,10.314,0,0,0-1.68-7.4c-2.529-3.463-7.445-4.9-12.225-3.448l-6.526-2.314L610.965,129a3.446,3.446,0,0,0-4.016.242l-3.616,2.944-.744,5.638,12.712,18.4a5.988,5.988,0,0,0,2.079,1.866l5.515,2.989h17.889l3.616-10.709Z" transform="translate(-599.272 -127.848)" fill="#d0fdff"/>
            <path id="Path_4752_-_Outline" data-name="Path 4752 - Outline" d="M635.527,156.447H617.638a.622.622,0,0,1-.3-.075l-5.515-2.989a6.641,6.641,0,0,1-2.295-2.059l-12.712-18.4a.622.622,0,0,1-.1-.435l.744-5.638a.622.622,0,0,1,.224-.4L601.3,123.5a4.068,4.068,0,0,1,4.741-.286l12.947,8.171,6.27,2.223a13.412,13.412,0,0,1,3.717-.531A10.329,10.329,0,0,1,639.759,145.2a.627.627,0,0,1-.027.111l-3.617,10.71A.622.622,0,0,1,635.527,156.447ZM617.8,155.2H635.08l3.455-10.231a9.686,9.686,0,0,0-1.573-6.892,9.807,9.807,0,0,0-7.989-3.756,12.2,12.2,0,0,0-3.553.536.622.622,0,0,1-.389-.009l-6.526-2.314a.619.619,0,0,1-.124-.06l-13.006-8.208a2.824,2.824,0,0,0-3.291.2l-3.424,2.788-.68,5.156,12.576,18.2a5.393,5.393,0,0,0,1.864,1.672Z" transform="translate(-594.014 -122.59)" fill="#366088"/>
            <path id="Path_4753" data-name="Path 4753" d="M598.9,174.506l-8.695-5.318H579.924a2.824,2.824,0,0,1,0-5.648H593.2l9.032,5.655L598.9,174.5Z" transform="translate(-576.478 -159.209)" fill="#fff"/>
            <path id="Path_4753_-_Outline" data-name="Path 4753 - Outline" d="M593.636,169.869a.617.617,0,0,1-.323-.091l-8.546-5.226h-10.1a3.446,3.446,0,0,1,0-6.892h13.28a.622.622,0,0,1,.33.095l9.032,5.655a.622.622,0,0,1,.2.858l-3.34,5.309A.623.623,0,0,1,593.636,169.869ZM574.666,158.9a2.2,2.2,0,1,0,0,4.4h10.277a.622.622,0,0,1,.324.091l8.171,5,2.681-4.263-8.353-5.23Z" transform="translate(-571.22 -153.951)" fill="#366088"/>
            <circle id="Ellipse_19" data-name="Ellipse 19" cx="4.764" cy="4.764" r="4.764" transform="translate(21.137 10.066) rotate(-13.28)" fill="#fff"/>
            <path id="Ellipse_19_-_Outline" data-name="Ellipse 19 - Outline" d="M5.386,0A5.386,5.386,0,1,1,0,5.386,5.392,5.392,0,0,1,5.386,0Zm0,9.527A4.142,4.142,0,1,0,1.244,5.386,4.146,4.146,0,0,0,5.386,9.527Z" transform="translate(20.389 9.604) rotate(-13.28)" fill="#366088"/>
          </g>
          <path id="Path_4754" data-name="Path 4754" d="M653.794,40.8,661.6,10.035a5.512,5.512,0,0,1,10.684,2.712l-11.651,45.8a7.634,7.634,0,0,1-7.409,5.719l-35.117-.088h-.005A5.187,5.187,0,0,1,612.93,59V56.642a5.184,5.184,0,0,1,5.177-5.184h24.821" transform="translate(-608.519 -5.257)" fill="#fff"/>
          <path id="Path_4754_-_Outline" data-name="Path 4754 - Outline" d="M647.99,59.618h-.02l-35.117-.088a5.81,5.81,0,0,1-5.8-5.805V51.371a5.809,5.809,0,0,1,5.8-5.805H637.67a.622.622,0,0,1,0,1.244H612.849a4.564,4.564,0,0,0-4.555,4.562v2.353a4.564,4.564,0,0,0,4.555,4.562l35.124.088a7.012,7.012,0,0,0,6.805-5.253l11.65-45.8a4.89,4.89,0,0,0-9.479-2.406l-7.811,30.769a.622.622,0,1,1-1.205-.306l7.811-30.769a6.133,6.133,0,0,1,11.89,3.018l-11.651,45.8A8.255,8.255,0,0,1,647.99,59.618Z" transform="translate(-603.26 0.014)" fill="#366088"/>
          <circle id="Ellipse_20" data-name="Ellipse 20" cx="8.549" cy="8.549" r="8.549" transform="translate(32.763 36.578) rotate(-9.22)" fill="#d0fdff"/>
          <path id="Ellipse_20_-_Outline" data-name="Ellipse 20 - Outline" d="M9.171,0A9.171,9.171,0,1,1,0,9.171,9.181,9.181,0,0,1,9.171,0Zm0,17.1A7.927,7.927,0,1,0,1.244,9.171,7.936,7.936,0,0,0,9.171,17.1Z" transform="translate(32.049 36.064) rotate(-9.22)" fill="#366088"/>
        </g>
      </g>
    </g>
  </g>
</svg>
