<svg xmlns="http://www.w3.org/2000/svg" width="44.818" height="33.39" viewBox="0 0 44.818 33.39">
  <g id="Group_21626" data-name="Group 21626" transform="translate(0.25 0.25)">
    <path id="Path_427" data-name="Path 427" d="M1714.583,3646.262l-6.17-2.913a.417.417,0,0,0-.567.252.5.5,0,0,0,.227.626l6.17,2.914a.408.408,0,0,0,.17.038.434.434,0,0,0,.4-.29A.5.5,0,0,0,1714.583,3646.262Z" transform="translate(-1677.953 -3616.319)" fill="#f5a800" stroke="#f5a800" stroke-width="0.5"/>
    <path id="Path_428" data-name="Path 428" d="M1551.874,3478.354a11.091,11.091,0,0,0-3.569-.1l-5.4.807a4.113,4.113,0,0,1-1.224-.041l-10.213-2.232a2.686,2.686,0,0,0-2.866,1.187l-.5.99a.159.159,0,0,1-.1.027,1.8,1.8,0,0,0-1.9,1.747l-.1.743a3.167,3.167,0,0,0,1.6,3.177l1.342.634a.4.4,0,0,0,.17.039.434.434,0,0,0,.4-.291.5.5,0,0,0-.227-.627l-1.342-.634a2.212,2.212,0,0,1-1.089-2.156l.1-.743c.085-.624.464-.991.967-.94a.931.931,0,0,0,.931-.5l.5-.992a1.871,1.871,0,0,1,1.95-.728l10.213,2.232a4.9,4.9,0,0,0,1.507.05l5.4-.807a10.367,10.367,0,0,1,3.27.085.435.435,0,0,0,.514-.366.48.48,0,0,0-.33-.568Z" transform="translate(-1507.906 -3461.572)" fill="#f5a800" stroke="#f5a800" stroke-width="0.5"/>
    <path id="Path_429" data-name="Path 429" d="M1822.77,3536.874l-4.155-1.473a.425.425,0,0,0-.543.309.488.488,0,0,0,.279.6l4.155,1.473a.381.381,0,0,0,.132.023.44.44,0,0,0,.412-.332.489.489,0,0,0-.279-.6Z" transform="translate(-1781.071 -3516.021)" fill="#f5a800" stroke="#f5a800" stroke-width="0.5"/>
    <path id="Path_430" data-name="Path 430" d="M1593.474,3548.766a3.637,3.637,0,0,0-1.565-.355,4,4,0,0,0-3.671,2.681,4.817,4.817,0,0,0-.034,3.378,4.21,4.21,0,0,0,2.136,2.414,3.644,3.644,0,0,0,1.565.355h0a4,4,0,0,0,3.672-2.682,4.605,4.605,0,0,0-2.1-5.792Zm1.309,5.416a3.135,3.135,0,0,1-2.878,2.1,2.855,2.855,0,0,1-1.225-.279,3.293,3.293,0,0,1-1.673-1.892,3.771,3.771,0,0,1,.026-2.646,3.134,3.134,0,0,1,2.877-2.1,2.843,2.843,0,0,1,1.225.279,3.607,3.607,0,0,1,1.648,4.537Z" transform="translate(-1565.805 -3528.217)" fill="#f5a800" stroke="#f5a800" stroke-width="0.5"/>
    <path id="Path_431" data-name="Path 431" d="M1247,3637.679h-.864a.48.48,0,0,0,0,.956H1247a.48.48,0,0,0,0-.956Z" transform="translate(-1245.7 -3611.092)" fill="#f5a800" stroke="#f5a800" stroke-width="0.5"/>
    <path id="Path_432" data-name="Path 432" d="M1265.024,3266.427a1.348,1.348,0,0,0,1-.459,1.646,1.646,0,0,0,.417-1.113v-.461a1.506,1.506,0,0,0-1.423-1.574h-3.665a1.992,1.992,0,0,0-1.409.706l-12.6,13.983h-1.009a.48.48,0,0,0,0,.956h10.187a1.364,1.364,0,0,1,1.29,1.425v5.889h-11.476a.48.48,0,0,0,0,.956h12.807a.757.757,0,0,1,.716.791v1.357a.758.758,0,0,1-.716.792h-2.762a.48.48,0,0,0,0,.955h2.762a1.672,1.672,0,0,0,1.579-1.747v-1.357a1.671,1.671,0,0,0-1.579-1.746h-.466v-5.889a2.279,2.279,0,0,0-2.153-2.382h-.216l6.474-10.66.017-.032a.808.808,0,0,1,.608-.392h0l1.608,0h0Zm-1.612-.959a1.651,1.651,0,0,0-1.35.861l-6.789,11.179h-6.7l12-13.32.021-.025a1.181,1.181,0,0,1,.766-.388h3.665a.592.592,0,0,1,.56.619v.461a.651.651,0,0,1-.164.437.532.532,0,0,1-.394.179h0l-1.608,0h0Z" transform="translate(-1245.897 -3262.82)" fill="#f5a800" stroke="#f5a800" stroke-width="0.5"/>
    <path id="Path_433" data-name="Path 433" d="M1278.9,3603.98a4.38,4.38,0,1,0,3.941,4.359A4.171,4.171,0,0,0,1278.9,3603.98Zm0,7.762a3.421,3.421,0,1,1,3.078-3.4A3.256,3.256,0,0,1,1278.9,3611.742Z" transform="translate(-1273.065 -3579.807)" fill="#f5a800" stroke="#f5a800" stroke-width="0.5"/>
    <path id="Path_434" data-name="Path 434" d="M1524.394,3334.13v-12.352a.434.434,0,1,0-.864,0v12.352a.434.434,0,1,0,.864,0Z" transform="translate(-1505.572 -3317.111)" fill="#f5a800" stroke="#f5a800" stroke-width="0.5"/>
  </g>
</svg>
