<svg xmlns="http://www.w3.org/2000/svg" width="21.25" height="17" viewBox="0 0 21.25 17">
  <path id="Path_40093" data-name="Path 40093" d="M10.037-5.874,6.216-7.368a1.019,1.019,0,0,0-.739,0L1.654-5.874a.885.885,0,0,0-.591.8,7.551,7.551,0,0,0,4.413,7.1,1.022,1.022,0,0,0,.739,0,7.456,7.456,0,0,0,4.411-7.1A.887.887,0,0,0,10.037-5.874ZM5.844.478V-5.8L9.015-4.563A5.934,5.934,0,0,1,5.844.478ZM-3.187-6.375a4.25,4.25,0,0,0,4.25-4.25,4.25,4.25,0,0,0-4.25-4.25,4.25,4.25,0,0,0-4.25,4.25A4.25,4.25,0,0,0-3.187-6.375ZM.02-4.572A5.783,5.783,0,0,0-1.5-4.781H-4.871A5.758,5.758,0,0,0-10.625.976,1.15,1.15,0,0,0-9.474,2.125H3.1a1.11,1.11,0,0,0,.294-.059A8.787,8.787,0,0,1,.02-4.572Z" transform="translate(10.625 14.875)" fill="#009ade"/>
</svg>
